<mxfile host="Electron" agent="Mozilla/5.0 (Windows NT 10.0; Win64; x64) AppleWebKit/537.36 (KHTML, like Gecko) draw.io/24.7.17 Chrome/128.0.6613.36 Electron/32.0.1 Safari/537.36" version="24.7.17">
  <diagram name="Page-1" id="MYFxjQPQ5Hyo0El1Yjo5">
    <mxGraphModel dx="1034" dy="1688" grid="1" gridSize="10" guides="1" tooltips="1" connect="1" arrows="1" fold="1" page="1" pageScale="1" pageWidth="827" pageHeight="1169" math="0" shadow="0">
      <root>
        <mxCell id="0" />
        <mxCell id="1" parent="0" />
        <mxCell id="_5I7UadlPxWPqDvvnRaM-1" value="&lt;div&gt;&lt;br&gt;&lt;/div&gt;" style="text;html=1;align=center;verticalAlign=middle;resizable=0;points=[];autosize=1;strokeColor=none;fillColor=none;" parent="1" vertex="1">
          <mxGeometry x="15" y="195" width="20" height="30" as="geometry" />
        </mxCell>
        <mxCell id="_5I7UadlPxWPqDvvnRaM-2" value="&lt;span style=&quot;text-wrap: nowrap;&quot;&gt;Réception des commandes du chef de cuisine&lt;/span&gt;" style="rounded=1;whiteSpace=wrap;html=1;fillColor=#A9C4EB;" parent="1" vertex="1">
          <mxGeometry x="430" width="260" height="60" as="geometry" />
        </mxCell>
        <mxCell id="_5I7UadlPxWPqDvvnRaM-3" value="&lt;span style=&quot;text-wrap: nowrap;&quot;&gt;Planification des préparations&lt;/span&gt;" style="rounded=1;whiteSpace=wrap;html=1;fillColor=#A9C4EB;" parent="1" vertex="1">
          <mxGeometry x="470" y="90" width="190" height="60" as="geometry" />
        </mxCell>
        <mxCell id="_5I7UadlPxWPqDvvnRaM-4" value="&lt;span style=&quot;text-wrap: nowrap;&quot;&gt;Les ingrédients sont-ils disponibles ?&lt;/span&gt;" style="rounded=1;whiteSpace=wrap;html=1;fillColor=#A9C4EB;" parent="1" vertex="1">
          <mxGeometry x="450" y="180" width="220" height="60" as="geometry" />
        </mxCell>
        <mxCell id="_5I7UadlPxWPqDvvnRaM-6" value="&lt;span style=&quot;text-wrap: nowrap;&quot;&gt;Préparation des plats&lt;/span&gt;" style="rounded=1;whiteSpace=wrap;html=1;fillColor=#A9C4EB;" parent="1" vertex="1">
          <mxGeometry x="387" y="330" width="146" height="60" as="geometry" />
        </mxCell>
        <mxCell id="_5I7UadlPxWPqDvvnRaM-7" value="&lt;span style=&quot;text-wrap: nowrap;&quot;&gt;Demande aux commis de préparer&lt;/span&gt;" style="rounded=1;whiteSpace=wrap;html=1;fillColor=#A9C4EB;" parent="1" vertex="1">
          <mxGeometry x="607" y="320" width="220" height="60" as="geometry" />
        </mxCell>
        <mxCell id="_5I7UadlPxWPqDvvnRaM-8" value="Les plats respectent-ils les instructions?" style="rounded=1;whiteSpace=wrap;html=1;fillColor=#A9C4EB;" parent="1" vertex="1">
          <mxGeometry x="410" y="420" width="120" height="60" as="geometry" />
        </mxCell>
        <mxCell id="_5I7UadlPxWPqDvvnRaM-9" value="&lt;span style=&quot;text-wrap: nowrap;&quot;&gt;Finalisation des plats&lt;/span&gt;" style="rounded=1;whiteSpace=wrap;html=1;fillColor=#A9C4EB;" parent="1" vertex="1">
          <mxGeometry x="400" y="520" width="120" height="60" as="geometry" />
        </mxCell>
        <mxCell id="_5I7UadlPxWPqDvvnRaM-10" value="Rectification des préparations" style="rounded=1;whiteSpace=wrap;html=1;fillColor=#A9C4EB;" parent="1" vertex="1">
          <mxGeometry x="630" y="520" width="120" height="60" as="geometry" />
        </mxCell>
        <mxCell id="_5I7UadlPxWPqDvvnRaM-11" value="Transmission des plats pour le service" style="rounded=1;whiteSpace=wrap;html=1;fillColor=#A9C4EB;" parent="1" vertex="1">
          <mxGeometry x="400" y="610" width="120" height="60" as="geometry" />
        </mxCell>
        <mxCell id="_5I7UadlPxWPqDvvnRaM-12" value="" style="ellipse;whiteSpace=wrap;html=1;aspect=fixed;fillColor=#000000;" parent="1" vertex="1">
          <mxGeometry x="550" y="-70" width="20" height="20" as="geometry" />
        </mxCell>
        <mxCell id="_5I7UadlPxWPqDvvnRaM-13" value="" style="endArrow=classic;html=1;rounded=0;entryX=0.5;entryY=0;entryDx=0;entryDy=0;" parent="1" target="_5I7UadlPxWPqDvvnRaM-2" edge="1">
          <mxGeometry width="50" height="50" relative="1" as="geometry">
            <mxPoint x="560" y="-50" as="sourcePoint" />
            <mxPoint x="610" y="-100" as="targetPoint" />
          </mxGeometry>
        </mxCell>
        <mxCell id="_5I7UadlPxWPqDvvnRaM-14" value="" style="endArrow=classic;html=1;rounded=0;entryX=0.468;entryY=-0.05;entryDx=0;entryDy=0;entryPerimeter=0;" parent="1" target="_5I7UadlPxWPqDvvnRaM-3" edge="1">
          <mxGeometry width="50" height="50" relative="1" as="geometry">
            <mxPoint x="560" y="60" as="sourcePoint" />
            <mxPoint x="610" y="10" as="targetPoint" />
          </mxGeometry>
        </mxCell>
        <mxCell id="_5I7UadlPxWPqDvvnRaM-15" value="" style="endArrow=classic;html=1;rounded=0;entryX=0.5;entryY=0;entryDx=0;entryDy=0;" parent="1" target="_5I7UadlPxWPqDvvnRaM-4" edge="1">
          <mxGeometry width="50" height="50" relative="1" as="geometry">
            <mxPoint x="560" y="150" as="sourcePoint" />
            <mxPoint x="610" y="100" as="targetPoint" />
          </mxGeometry>
        </mxCell>
        <mxCell id="_5I7UadlPxWPqDvvnRaM-16" value="" style="rhombus;whiteSpace=wrap;html=1;fillColor=#FFFFFF;" parent="1" vertex="1">
          <mxGeometry x="550" y="280" width="20" height="30" as="geometry" />
        </mxCell>
        <mxCell id="_5I7UadlPxWPqDvvnRaM-17" value="" style="endArrow=none;html=1;rounded=0;entryX=0;entryY=0.5;entryDx=0;entryDy=0;" parent="1" target="_5I7UadlPxWPqDvvnRaM-16" edge="1">
          <mxGeometry width="50" height="50" relative="1" as="geometry">
            <mxPoint x="460" y="295" as="sourcePoint" />
            <mxPoint x="550" y="290" as="targetPoint" />
          </mxGeometry>
        </mxCell>
        <mxCell id="_5I7UadlPxWPqDvvnRaM-18" value="" style="endArrow=none;html=1;rounded=0;exitX=1;exitY=0.5;exitDx=0;exitDy=0;" parent="1" source="_5I7UadlPxWPqDvvnRaM-16" edge="1">
          <mxGeometry width="50" height="50" relative="1" as="geometry">
            <mxPoint x="570" y="300" as="sourcePoint" />
            <mxPoint x="680" y="295" as="targetPoint" />
          </mxGeometry>
        </mxCell>
        <mxCell id="_5I7UadlPxWPqDvvnRaM-19" value="" style="endArrow=classic;html=1;rounded=0;entryX=0.5;entryY=0;entryDx=0;entryDy=0;" parent="1" target="_5I7UadlPxWPqDvvnRaM-6" edge="1">
          <mxGeometry width="50" height="50" relative="1" as="geometry">
            <mxPoint x="460" y="290" as="sourcePoint" />
            <mxPoint x="510" y="250" as="targetPoint" />
          </mxGeometry>
        </mxCell>
        <mxCell id="_5I7UadlPxWPqDvvnRaM-20" value="" style="endArrow=classic;html=1;rounded=0;entryX=0.332;entryY=-0.042;entryDx=0;entryDy=0;entryPerimeter=0;" parent="1" target="_5I7UadlPxWPqDvvnRaM-7" edge="1">
          <mxGeometry width="50" height="50" relative="1" as="geometry">
            <mxPoint x="680" y="290" as="sourcePoint" />
            <mxPoint x="730" y="240" as="targetPoint" />
          </mxGeometry>
        </mxCell>
        <mxCell id="_5I7UadlPxWPqDvvnRaM-21" value="" style="endArrow=classic;html=1;rounded=0;entryX=0.5;entryY=0;entryDx=0;entryDy=0;" parent="1" target="_5I7UadlPxWPqDvvnRaM-16" edge="1">
          <mxGeometry width="50" height="50" relative="1" as="geometry">
            <mxPoint x="560" y="240" as="sourcePoint" />
            <mxPoint x="610" y="190" as="targetPoint" />
          </mxGeometry>
        </mxCell>
        <mxCell id="_5I7UadlPxWPqDvvnRaM-22" value="" style="endArrow=classic;html=1;rounded=0;entryX=0.421;entryY=0;entryDx=0;entryDy=0;entryPerimeter=0;" parent="1" target="_5I7UadlPxWPqDvvnRaM-8" edge="1">
          <mxGeometry width="50" height="50" relative="1" as="geometry">
            <mxPoint x="460" y="390" as="sourcePoint" />
            <mxPoint x="510" y="340" as="targetPoint" />
          </mxGeometry>
        </mxCell>
        <mxCell id="_5I7UadlPxWPqDvvnRaM-23" value="" style="endArrow=classic;html=1;rounded=0;entryX=0.5;entryY=0;entryDx=0;entryDy=0;exitX=1.063;exitY=0.383;exitDx=0;exitDy=0;exitPerimeter=0;" parent="1" target="_5I7UadlPxWPqDvvnRaM-9" edge="1" source="_5I7UadlPxWPqDvvnRaM-26">
          <mxGeometry width="50" height="50" relative="1" as="geometry">
            <mxPoint x="460" y="480" as="sourcePoint" />
            <mxPoint x="510" y="430" as="targetPoint" />
          </mxGeometry>
        </mxCell>
        <mxCell id="_5I7UadlPxWPqDvvnRaM-24" value="" style="endArrow=none;html=1;rounded=0;exitX=0.07;exitY=0.683;exitDx=0;exitDy=0;exitPerimeter=0;" parent="1" edge="1" source="_5I7UadlPxWPqDvvnRaM-27">
          <mxGeometry width="50" height="50" relative="1" as="geometry">
            <mxPoint x="530" y="450" as="sourcePoint" />
            <mxPoint x="690" y="450" as="targetPoint" />
          </mxGeometry>
        </mxCell>
        <mxCell id="_5I7UadlPxWPqDvvnRaM-25" value="" style="endArrow=classic;html=1;rounded=0;" parent="1" target="_5I7UadlPxWPqDvvnRaM-10" edge="1">
          <mxGeometry width="50" height="50" relative="1" as="geometry">
            <mxPoint x="690" y="450" as="sourcePoint" />
            <mxPoint x="740" y="400" as="targetPoint" />
          </mxGeometry>
        </mxCell>
        <mxCell id="_5I7UadlPxWPqDvvnRaM-26" value="Oui" style="text;html=1;align=center;verticalAlign=middle;resizable=0;points=[];autosize=1;strokeColor=none;fillColor=none;" parent="1" vertex="1">
          <mxGeometry x="420" y="488" width="40" height="30" as="geometry" />
        </mxCell>
        <mxCell id="_5I7UadlPxWPqDvvnRaM-27" value="Non" style="text;html=1;align=center;verticalAlign=middle;resizable=0;points=[];autosize=1;strokeColor=none;fillColor=none;" parent="1" vertex="1">
          <mxGeometry x="600" y="428" width="50" height="30" as="geometry" />
        </mxCell>
        <mxCell id="_5I7UadlPxWPqDvvnRaM-28" value="" style="endArrow=classic;html=1;rounded=0;entryX=0.5;entryY=0;entryDx=0;entryDy=0;" parent="1" target="_5I7UadlPxWPqDvvnRaM-11" edge="1">
          <mxGeometry width="50" height="50" relative="1" as="geometry">
            <mxPoint x="460" y="580" as="sourcePoint" />
            <mxPoint x="510" y="530" as="targetPoint" />
          </mxGeometry>
        </mxCell>
        <mxCell id="_5I7UadlPxWPqDvvnRaM-29" value="" style="endArrow=classic;html=1;rounded=0;" parent="1" edge="1">
          <mxGeometry width="50" height="50" relative="1" as="geometry">
            <mxPoint x="460" y="670" as="sourcePoint" />
            <mxPoint x="460" y="700" as="targetPoint" />
          </mxGeometry>
        </mxCell>
        <mxCell id="_5I7UadlPxWPqDvvnRaM-31" value="" style="ellipse;html=1;shape=endState;fillColor=#000000;strokeColor=#ff0000;" parent="1" vertex="1">
          <mxGeometry x="450" y="700" width="20" height="20" as="geometry" />
        </mxCell>
        <mxCell id="_5I7UadlPxWPqDvvnRaM-32" value="Oui" style="text;html=1;align=center;verticalAlign=middle;resizable=0;points=[];autosize=1;strokeColor=none;fillColor=none;" parent="1" vertex="1">
          <mxGeometry x="420" y="288" width="40" height="30" as="geometry" />
        </mxCell>
        <mxCell id="_5I7UadlPxWPqDvvnRaM-33" value="Non" style="text;html=1;align=center;verticalAlign=middle;resizable=0;points=[];autosize=1;strokeColor=none;fillColor=none;" parent="1" vertex="1">
          <mxGeometry x="670" y="288" width="50" height="30" as="geometry" />
        </mxCell>
        <mxCell id="c1c1QVu9DbK-d9JIJTLp-1" value="" style="rhombus;whiteSpace=wrap;html=1;" vertex="1" parent="1">
          <mxGeometry x="570" y="435" width="35" height="30" as="geometry" />
        </mxCell>
        <mxCell id="c1c1QVu9DbK-d9JIJTLp-2" value="" style="endArrow=none;html=1;rounded=0;entryX=0;entryY=0.5;entryDx=0;entryDy=0;" edge="1" parent="1" target="c1c1QVu9DbK-d9JIJTLp-1">
          <mxGeometry width="50" height="50" relative="1" as="geometry">
            <mxPoint x="530" y="450" as="sourcePoint" />
            <mxPoint x="580" y="400" as="targetPoint" />
          </mxGeometry>
        </mxCell>
        <mxCell id="c1c1QVu9DbK-d9JIJTLp-3" value="" style="endArrow=none;html=1;rounded=0;entryX=0.5;entryY=1;entryDx=0;entryDy=0;" edge="1" parent="1" target="c1c1QVu9DbK-d9JIJTLp-1">
          <mxGeometry width="50" height="50" relative="1" as="geometry">
            <mxPoint x="588" y="500" as="sourcePoint" />
            <mxPoint x="600" y="480" as="targetPoint" />
          </mxGeometry>
        </mxCell>
        <mxCell id="c1c1QVu9DbK-d9JIJTLp-4" value="" style="endArrow=none;html=1;rounded=0;" edge="1" parent="1">
          <mxGeometry width="50" height="50" relative="1" as="geometry">
            <mxPoint x="463" y="500" as="sourcePoint" />
            <mxPoint x="590" y="500" as="targetPoint" />
          </mxGeometry>
        </mxCell>
      </root>
    </mxGraphModel>
  </diagram>
</mxfile>
